{"title":"Red.State.2011.720p.BRRip.Xvid.AC3-DiVERSiTY","uid":6740404,"size":1476821982,"categoryP":"video","categoryS":"hd___movies","magnet":"?xt=urn:btih:bc339a14845386ff6913f6d0a313de9f0875031f&amp;dn=Red.State.2011.720p.BRRip.Xvid.AC3-DiVERSiTY&amp;tr=udp%3A%2F%2Ftracker.openbittorrent.com%3A80&amp;tr=udp%3A%2F%2Fopen.demonii.com%3A1337&amp;tr=udp%3A%2F%2Ftracker.coppersurfer.tk%3A6969&amp;tr=udp%3A%2F%2Fexodus.desync.com%3A6969","seeders":0,"leechers":0,"uploader":"endzeit","files":1,"time":1318483895,"description":"Set in Middle America, a group of teens receive an online invitation for sex,\nthough they soon encounter fundamentalists with a much more sinister agenda.\n &lt;a href=&quot;\nhttp://www.imdb.com/title/tt0873886/&quot; rel=&quot;nofollow&quot; target=&quot;_NEW&quot;&gt;\nhttp://www.imdb.com/title/tt0873886/&lt;/a&gt;\n\n\nComplete name                    : Red State.2011.720p.BRRip.Xvid.AC3.DiVERSiTY\nFormat                           : AVI\nFormat/Info                      : Audio Video Interleave\nFormat profile                   : OpenDML\nFile size                        : 1.37 GB\nDuration                         : 1h 26mn\nOverall bit rate                 : 3 224 Kbps\nWriting application              : AVI-Mux GUI 1.17.8.3\nVideo-Source                     : 720p bluray - refined  \nEncoded by                       : Hibees\nPosted by                        : hellalien\n\nVideo\n\nFormat                           : MPEG-4 Visual\nFormat profile                   : Streaming Video@L1\nFormat settings, BVOP            : Yes\nFormat settings, QPel            : No\nFormat settings, GMC             : No warppoints\nFormat settings, Matrix          : Default\nCodec ID                         : XVID\nCodec ID/Hint                    : XviD\nDuration                         : 1h 26mn\nBit rate                         : 2 579 Kbps\nWidth                            : 1 280 pixels\nHeight                           : 688 pixels\nDisplay aspect ratio             : 1.860\nFrame rate                       : 23.976 fps\nResolution                       : 24 bits\nColorimetry                      : 4:2:0\nScan type                        : Progressive\nBits/(Pixel*Frame)               : 0.122\nStream size                      : 1.56 GiB (80%)\nWriting library                  : XviD 1.2.1 (UTC 2008-12-04)\n\n\nAudio\n\n\nFormat                           : AC-3\nFormat/Info                      : Audio Coding 3\nCodec ID                         : 2000\nDuration                         : 1h 26mn\nBit rate mode                    : Constant\nBit rate                         : 640 Kbps\nChannel(s)                       : 6 channels\nChannel positions                : Front: L C R, Surround: L R, LFE\nSampling rate                    : 48.0 KHz\nStream size                      : 398 MiB (20%)\nAlignment                        : Aligned on interleaves\nInterleave, duration             : 64 ms (1.53 video frames)\nInterleave, preload duration     : 192 ms\nTitle  ","torrent":{"xt":"urn:btih:bc339a14845386ff6913f6d0a313de9f0875031f","amp;dn":"Red.State.2011.720p.BRRip.Xvid.AC3-DiVERSiTY","amp;tr":["udp%3A%2F%2Ftracker.openbittorrent.com%3A80","udp%3A%2F%2Fopen.demonii.com%3A1337","udp%3A%2F%2Ftracker.coppersurfer.tk%3A6969","udp%3A%2F%2Fexodus.desync.com%3A6969"],"infoHash":"bc339a14845386ff6913f6d0a313de9f0875031f","infoHashBuffer":{"type":"Buffer","data":[188,51,154,20,132,83,134,255,105,19,246,208,163,19,222,159,8,117,3,31]},"announce":[],"urlList":[]}}